<svg xmlns="http://www.w3.org/2000/svg" width="43.544" height="45.001" viewBox="0 0 43.544 45.001"><g transform="translate(550.004 -4477.554)"><path d="M-510.35,4498.133h-30.1c.1-3.178.827-5.224,2.206-6.239,1.273-.937,2.995-.937,4.66-.937h11.294c1.585,0,3.558,0,4.941-1.847,1.343-1.792,1.968-5.184,1.968-10.675a.881.881,0,0,0-.881-.881.881.881,0,0,0-.881.881c0,5.021-.529,8.167-1.616,9.619-.814,1.086-1.872,1.141-3.531,1.141h-11.294c-3.343,0-8.345,0-8.628,8.938h-3.9a3.894,3.894,0,0,0-3.89,3.89v16.64a3.894,3.894,0,0,0,3.89,3.89h30a.881.881,0,0,0,.881-.881.881.881,0,0,0-.881-.881h-30a2.13,2.13,0,0,1-2.128-2.128v-16.64a2.13,2.13,0,0,1,2.128-2.127h35.764a2.13,2.13,0,0,1,2.128,2.127v16.64a2.13,2.13,0,0,1-2.128,2.128h-.6a.881.881,0,0,0-.881.881.881.881,0,0,0,.881.881h.6a3.894,3.894,0,0,0,3.89-3.89v-16.64A3.894,3.894,0,0,0-510.35,4498.133Z" fill="#FDC300"/><path d="M-448.138,4826.465h19.54a.881.881,0,0,0,.881-.881.881.881,0,0,0-.881-.881h-19.54a.881.881,0,0,0-.881.881A.881.881,0,0,0-448.138,4826.465Z" transform="translate(-89.864 -308.919)" fill="#FDC300"/><path d="M-244.5,4718.9a.881.881,0,0,0-.881.881v4.945h-1.475a.881.881,0,0,0-.881.881.881.881,0,0,0,.881.881h2.356a.881.881,0,0,0,.881-.881v-5.826A.881.881,0,0,0-244.5,4718.9Z" transform="translate(-268.98 -214.769)" fill="#FDC300"/><circle cx="0.881" cy="0.881" r="0.881" transform="translate(-543.759 4515.781)" fill="#FDC300"/><circle cx="0.881" cy="0.881" r="0.881" transform="translate(-514.381 4520.793)" fill="#FDC300"/><path d="M-303.977,4773.565h3a.881.881,0,0,0,.881-.881.881.881,0,0,0-.881-.881h-3a.881.881,0,0,0-.881.881A.881.881,0,0,0-303.977,4773.565Z" transform="translate(-218.149 -261.844)" fill="#FDC300"/><path d="M-361.981,4772.684a.881.881,0,0,0,.881.881h3a.881.881,0,0,0,.881-.881.881.881,0,0,0-.881-.881h-3A.881.881,0,0,0-361.981,4772.684Z" transform="translate(-167.317 -261.844)" fill="#FDC300"/><path d="M-419.1,4772.684a.881.881,0,0,0,.881.881h3a.881.881,0,0,0,.881-.881.881.881,0,0,0-.881-.881h-3A.881.881,0,0,0-419.1,4772.684Z" transform="translate(-116.484 -261.844)" fill="#FDC300"/><path d="M-486.783,4772.684a.881.881,0,0,0-.881-.881h-4.882a.881.881,0,0,0-.881.881.881.881,0,0,0,.881.881h4.882A.881.881,0,0,0-486.783,4772.684Z" transform="translate(-50.346 -261.844)" fill="#FDC300"/><path d="M-303.977,4720.663h3a.881.881,0,0,0,.881-.881.881.881,0,0,0-.881-.881h-3a.881.881,0,0,0-.881.881A.881.881,0,0,0-303.977,4720.663Z" transform="translate(-218.149 -214.769)" fill="#FDC300"/><path d="M-363.837,4718.9h-3a.881.881,0,0,0-.881.881.881.881,0,0,0,.881.881h3a.881.881,0,0,0,.881-.881A.881.881,0,0,0-363.837,4718.9Z" transform="translate(-162.215 -214.769)" fill="#FDC300"/><path d="M-426.694,4718.9h-3a.881.881,0,0,0-.881.881.881.881,0,0,0,.881.881h3a.881.881,0,0,0,.881-.881A.881.881,0,0,0-426.694,4718.9Z" transform="translate(-106.28 -214.769)" fill="#FDC300"/><path d="M-492.545,4720.663h3a.881.881,0,0,0,.881-.881.881.881,0,0,0-.881-.881h-3a.881.881,0,0,0-.881.881A.881.881,0,0,0-492.545,4720.663Z" transform="translate(-50.347 -214.769)" fill="#FDC300"/></g></svg>